<svg width="40" height="30" viewBox="0 0 40 30" fill="none" xmlns="http://www.w3.org/2000/svg">
<path d="M16.6456 3.9237C17.9356 2.56343 19.7316 1.71982 21.7179 1.71982C24.3584 1.71982 26.6621 3.20983 27.8889 5.42179C28.955 4.93973 30.135 4.67159 31.3766 4.67159C36.139 4.67159 40 8.61286 40 13.4744C40 18.3366 36.139 22.2779 31.3766 22.2779C30.7954 22.2779 30.2274 22.219 29.6781 22.1066C28.5977 24.0568 26.539 25.3744 24.1761 25.3744C23.1869 25.3744 22.2513 25.1431 21.4182 24.732C20.3231 27.339 17.7715 29.1669 14.7977 29.1669C11.7009 29.1669 9.06154 27.1838 8.04843 24.4027C7.6057 24.4979 7.14701 24.5475 6.67635 24.5475C2.98917 24.5475 0 21.4913 0 17.7207C0 15.194 1.34302 12.9878 3.33846 11.8074C2.92764 10.8508 2.69915 9.79496 2.69915 8.68494C2.69915 4.34868 6.17778 0.833536 10.4684 0.833536C12.9875 0.833536 15.2262 2.04561 16.6456 3.9237Z" fill="#00A1E0"/>
<path d="M5.79371 15.5264C5.76864 15.5927 5.80282 15.6066 5.8108 15.6181C5.88602 15.6735 5.96237 15.7132 6.03929 15.7576C6.44727 15.9768 6.83245 16.0408 7.2353 16.0408C8.05581 16.0408 8.56522 15.5991 8.56522 14.8881V14.8742C8.56522 14.2169 7.99029 13.9782 7.45069 13.8058L7.3806 13.7827C6.97376 13.6489 6.62277 13.5336 6.62277 13.2626V13.2481C6.62277 13.0163 6.82789 12.8457 7.14584 12.8457C7.49912 12.8457 7.91849 12.9644 8.18858 13.1155C8.18858 13.1155 8.26778 13.1674 8.29684 13.0896C8.31279 13.0481 8.44955 12.6756 8.46379 12.6352C8.47918 12.5914 8.45183 12.5591 8.42391 12.5418C8.11564 12.3521 7.68943 12.2223 7.24841 12.2223L7.16636 12.2229C6.41536 12.2229 5.89114 12.6819 5.89114 13.3398V13.3537C5.89114 14.0474 6.46949 14.2722 7.01137 14.4291L7.09855 14.4562C7.49342 14.579 7.83359 14.6845 7.83359 14.9659V14.9798C7.83359 15.2369 7.61251 15.4284 7.25582 15.4284C7.11735 15.4284 6.67576 15.4255 6.19884 15.1205C6.14129 15.0864 6.10767 15.0617 6.06322 15.0346C6.03986 15.0196 5.98117 14.9936 5.95553 15.072L5.79371 15.5264Z" fill="white"/>
<path d="M17.8054 15.5264C17.7804 15.5927 17.8145 15.6066 17.8225 15.6181C17.8977 15.6735 17.9741 15.7132 18.051 15.7576C18.459 15.9768 18.8442 16.0408 19.247 16.0408C20.0675 16.0408 20.5769 15.5991 20.5769 14.8881V14.8742C20.5769 14.2169 20.002 13.9782 19.4624 13.8058L19.3923 13.7827C18.9855 13.6489 18.6345 13.5336 18.6345 13.2626V13.2481C18.6345 13.0163 18.8396 12.8457 19.1576 12.8457C19.5108 12.8457 19.9302 12.9644 20.2003 13.1155C20.2003 13.1155 20.2795 13.1674 20.3086 13.0896C20.3245 13.0481 20.4613 12.6756 20.4755 12.6352C20.4909 12.5914 20.4636 12.5591 20.4356 12.5418C20.1274 12.3521 19.7012 12.2223 19.2601 12.2223L19.1781 12.2229C18.4271 12.2229 17.9029 12.6819 17.9029 13.3398V13.3537C17.9029 14.0474 18.4812 14.2722 19.0231 14.4291L19.1103 14.4562C19.5051 14.579 19.8459 14.6845 19.8459 14.9659V14.9798C19.8459 15.2369 19.6242 15.4284 19.2675 15.4284C19.1291 15.4284 18.6875 15.4255 18.2106 15.1205C18.153 15.0864 18.1188 15.0628 18.0755 15.0346C18.0607 15.0247 17.9912 14.9976 17.9672 15.072L17.8054 15.5264Z" fill="white"/>
<path d="M26.0058 14.1338C26.0058 14.5357 25.9318 14.8523 25.7859 15.076C25.6417 15.2975 25.4235 15.4053 25.1192 15.4053C24.8144 15.4053 24.5973 15.298 24.4554 15.076C24.3118 14.8529 24.2389 14.5357 24.2389 14.1338C24.2389 13.7325 24.3118 13.4165 24.4554 13.1951C24.5973 12.9759 24.8144 12.8693 25.1192 12.8693C25.4235 12.8693 25.6417 12.9759 25.7865 13.1951C25.9318 13.4165 26.0058 13.7325 26.0058 14.1338ZM26.6907 13.3888C26.6235 13.1587 26.5187 12.9558 26.3791 12.7868C26.2395 12.6173 26.0628 12.4812 25.8531 12.382C25.644 12.2834 25.3967 12.2332 25.1192 12.2332C24.8412 12.2332 24.5939 12.2834 24.3848 12.382C24.1751 12.4812 23.9984 12.6173 23.8583 12.7868C23.7192 12.9563 23.6144 13.1593 23.5466 13.3888C23.4799 13.6177 23.4463 13.868 23.4463 14.1338C23.4463 14.3996 23.4799 14.6505 23.5466 14.8788C23.6144 15.1083 23.7187 15.3113 23.8588 15.4808C23.9984 15.6503 24.1756 15.7859 24.3848 15.8822C24.5944 15.9785 24.8412 16.0275 25.1192 16.0275C25.3967 16.0275 25.6434 15.9785 25.8531 15.8822C26.0622 15.7859 26.2395 15.6503 26.3791 15.4808C26.5187 15.3119 26.6235 15.1089 26.6907 14.8788C26.758 14.6499 26.7916 14.3991 26.7916 14.1338C26.7916 13.8686 26.758 13.6177 26.6907 13.3888Z" fill="white"/>
<path d="M32.3149 15.298C32.2921 15.2305 32.2277 15.2559 32.2277 15.2559C32.128 15.2945 32.022 15.3303 31.9092 15.3482C31.7946 15.366 31.6687 15.3753 31.5337 15.3753C31.202 15.3753 30.9388 15.2755 30.7502 15.0783C30.561 14.8811 30.455 14.5622 30.4562 14.1309C30.4573 13.7382 30.5508 13.443 30.7188 13.2181C30.8858 12.9943 31.1399 12.8796 31.479 12.8796C31.7616 12.8796 31.977 12.9125 32.2026 12.9845C32.2026 12.9845 32.2567 13.0082 32.2824 12.9367C32.3422 12.7683 32.3866 12.6478 32.4505 12.4627C32.4687 12.4102 32.4243 12.3877 32.4083 12.3814C32.3194 12.3462 32.1097 12.2891 31.9513 12.2649C31.8032 12.2418 31.63 12.2297 31.4374 12.2297C31.1496 12.2297 30.8932 12.2793 30.6738 12.3785C30.455 12.4771 30.2693 12.6132 30.1223 12.7827C29.9753 12.9523 29.8636 13.1552 29.7889 13.3847C29.7149 13.6136 29.6772 13.8651 29.6772 14.1309C29.6772 14.7058 29.8305 15.1706 30.1331 15.5108C30.4362 15.8521 30.8915 16.0257 31.4852 16.0257C31.8362 16.0257 32.1963 15.9536 32.455 15.8504C32.455 15.8504 32.5046 15.8262 32.4829 15.7679L32.3149 15.298Z" fill="white"/>
<path d="M33.5134 13.7488C33.5459 13.5256 33.6068 13.3399 33.7008 13.1952C33.8427 12.9755 34.0593 12.855 34.3635 12.855C34.6678 12.855 34.8689 12.9761 35.0131 13.1952C35.1088 13.3399 35.1504 13.5337 35.1669 13.7488H33.5134ZM35.8194 13.2581C35.7612 13.0361 35.6171 12.8117 35.5225 12.7091C35.3732 12.5465 35.2273 12.4329 35.0826 12.3695C34.8934 12.2876 34.6667 12.2334 34.4182 12.2334C34.1288 12.2334 33.8661 12.2824 33.653 12.3839C33.4393 12.4854 33.2598 12.6238 33.1191 12.7962C32.9783 12.968 32.8724 13.1727 32.8051 13.4051C32.7373 13.6363 32.7031 13.8883 32.7031 14.1541C32.7031 14.4246 32.7385 14.6766 32.8085 14.9032C32.8792 15.1315 32.992 15.3328 33.1447 15.4994C33.2969 15.6672 33.4929 15.7987 33.7276 15.8904C33.9607 15.9815 34.2439 16.0288 34.5692 16.0282C35.2387 16.0259 35.5914 15.8748 35.7367 15.7935C35.7624 15.7791 35.7869 15.7537 35.7561 15.6811L35.6046 15.2515C35.5818 15.1875 35.5174 15.2111 35.5174 15.2111C35.3516 15.2734 35.1157 15.3852 34.5658 15.3841C34.2063 15.3835 33.9396 15.2763 33.7726 15.1085C33.6011 14.9366 33.5174 14.6841 33.5026 14.3277L35.8211 14.33C35.8211 14.33 35.882 14.3289 35.8883 14.2689C35.8906 14.2435 35.9681 13.7868 35.8194 13.2581Z" fill="white"/>
<path d="M14.9455 13.7488C14.9786 13.5256 15.039 13.3399 15.133 13.1952C15.2749 12.9755 15.4914 12.855 15.7957 12.855C16.0999 12.855 16.3011 12.9761 16.4458 13.1952C16.541 13.3399 16.5825 13.5337 16.5991 13.7488H14.9455ZM17.2509 13.2581C17.1928 13.0361 17.0492 12.8117 16.9546 12.7091C16.8053 12.5465 16.6595 12.4329 16.5147 12.3695C16.3256 12.2876 16.0988 12.2334 15.8504 12.2334C15.5615 12.2334 15.2982 12.2824 15.0851 12.3839C14.8714 12.4854 14.6919 12.6238 14.5512 12.7962C14.4105 12.968 14.3045 13.1727 14.2372 13.4051C14.17 13.6363 14.1353 13.8883 14.1353 14.1541C14.1353 14.4246 14.1706 14.6766 14.2407 14.9032C14.3113 15.1315 14.4241 15.3328 14.5768 15.4994C14.729 15.6672 14.925 15.7987 15.1598 15.8904C15.3928 15.9815 15.676 16.0288 16.0014 16.0282C16.6709 16.0259 17.0236 15.8748 17.1689 15.7935C17.1945 15.7791 17.219 15.7537 17.1882 15.6811L17.0372 15.2515C17.0139 15.1875 16.9495 15.2111 16.9495 15.2111C16.7837 15.2734 16.5484 15.3852 15.9974 15.3841C15.6384 15.3835 15.3717 15.2763 15.2048 15.1085C15.0333 14.9366 14.9495 14.6841 14.9347 14.3277L17.2532 14.33C17.2532 14.33 17.3142 14.3289 17.3204 14.2689C17.3227 14.2435 17.4002 13.7868 17.2509 13.2581Z" fill="white"/>
<path d="M9.93391 15.2851C9.84331 15.2118 9.83077 15.1934 9.80001 15.1461C9.75442 15.074 9.73106 14.9714 9.73106 14.8411C9.73106 14.6346 9.7983 14.4864 9.9379 14.3867C9.93619 14.3873 10.1373 14.2108 10.6103 14.2171C10.9425 14.2218 11.2393 14.2714 11.2393 14.2714V15.3381H11.2399C11.2399 15.3381 10.9453 15.4021 10.6137 15.4223C10.1419 15.4511 9.9322 15.2845 9.93391 15.2851ZM10.8564 13.6365C10.7624 13.6296 10.6405 13.6255 10.4946 13.6255C10.2957 13.6255 10.1037 13.6509 9.92365 13.6999C9.74246 13.7489 9.57949 13.8256 9.43932 13.9271C9.29858 14.0292 9.18519 14.1595 9.10314 14.314C9.02109 14.4686 8.97949 14.6508 8.97949 14.8549C8.97949 15.0625 9.01482 15.243 9.08548 15.3906C9.15613 15.5388 9.25812 15.6622 9.38804 15.7573C9.51681 15.8525 9.67579 15.9222 9.8604 15.9643C10.0422 16.0064 10.2484 16.0278 10.4741 16.0278C10.7117 16.0278 10.9487 16.0082 11.1784 15.9684C11.4057 15.9292 11.6849 15.8721 11.7624 15.8542C11.8393 15.8358 11.9248 15.8121 11.9248 15.8121C11.9823 15.7977 11.9778 15.7354 11.9778 15.7354L11.9766 13.5898C11.9766 13.1192 11.8524 12.7704 11.608 12.5541C11.3647 12.3385 11.0063 12.2295 10.543 12.2295C10.3692 12.2295 10.0895 12.2537 9.92194 12.2877C9.92194 12.2877 9.41539 12.3869 9.20684 12.5518C9.20684 12.5518 9.16126 12.5807 9.18633 12.6452L9.35043 13.0916C9.37095 13.1492 9.42622 13.1296 9.42622 13.1296C9.42622 13.1296 9.44388 13.1227 9.46439 13.1106C9.91055 12.8649 10.4747 12.8724 10.4747 12.8724C10.7254 12.8724 10.918 12.9232 11.0479 13.0241C11.1744 13.1221 11.2388 13.2703 11.2388 13.5829V13.682C11.0393 13.6532 10.8564 13.6365 10.8564 13.6365Z" fill="white"/>
<path d="M29.5563 12.4275C29.5739 12.3745 29.5369 12.3491 29.5215 12.3433C29.4822 12.3277 29.285 12.2857 29.1329 12.2758C28.8417 12.258 28.6799 12.3076 28.5352 12.3733C28.3916 12.439 28.2321 12.5451 28.1432 12.6657V12.3802C28.1432 12.3404 28.1152 12.3087 28.0765 12.3087H27.4822C27.4434 12.3087 27.4155 12.3404 27.4155 12.3802V15.8798C27.4155 15.919 27.4474 15.9513 27.4862 15.9513H28.0953C28.134 15.9513 28.1654 15.919 28.1654 15.8798V14.1314C28.1654 13.8968 28.191 13.6626 28.2423 13.5156C28.2925 13.3703 28.3608 13.2538 28.4452 13.1702C28.5301 13.0872 28.6264 13.0289 28.7318 12.9961C28.8395 12.9626 28.9586 12.9517 29.0429 12.9517C29.1642 12.9517 29.2976 12.9834 29.2976 12.9834C29.342 12.9886 29.3671 12.9609 29.3819 12.9199C29.4218 12.8127 29.5346 12.4915 29.5563 12.4275Z" fill="white"/>
<path d="M23.8386 10.8056C23.7645 10.7825 23.6973 10.7669 23.6095 10.7502C23.5206 10.7341 23.4147 10.726 23.2944 10.726C22.8751 10.726 22.5446 10.8459 22.3127 11.0823C22.0819 11.3176 21.9252 11.6757 21.8466 12.1468L21.8181 12.3054H21.2916C21.2916 12.3054 21.2278 12.3031 21.2141 12.3734L21.128 12.8618C21.1218 12.908 21.1417 12.9374 21.2033 12.9374H21.7155L21.1959 15.8736C21.1554 16.11 21.1087 16.3043 21.0568 16.4519C21.0061 16.5972 20.9565 16.7062 20.895 16.7858C20.8357 16.8619 20.7799 16.9184 20.683 16.9513C20.6033 16.9784 20.511 16.9911 20.4101 16.9911C20.3543 16.9911 20.2796 16.9819 20.2243 16.9703C20.1696 16.9594 20.1406 16.9473 20.099 16.9294C20.099 16.9294 20.0392 16.9063 20.0152 16.9669C19.9964 17.017 19.8597 17.397 19.8431 17.4437C19.8272 17.4904 19.85 17.5268 19.879 17.5377C19.9474 17.5619 19.9981 17.5781 20.091 17.6006C20.2198 17.6311 20.3286 17.6329 20.4306 17.6329C20.6437 17.6329 20.8386 17.6023 20.9998 17.5435C21.1617 17.4841 21.303 17.3809 21.4283 17.2413C21.5634 17.0903 21.6483 16.9323 21.7292 16.716C21.8095 16.5027 21.8785 16.2374 21.9332 15.9284L22.4557 12.9374H23.2192C23.2192 12.9374 23.2836 12.9397 23.2967 12.8688L23.3833 12.3809C23.389 12.3342 23.3696 12.3054 23.3075 12.3054H22.5662C22.5702 12.2887 22.6038 12.0246 22.6887 11.776C22.7252 11.6705 22.7936 11.5846 22.8511 11.5258C22.9081 11.4681 22.9736 11.4272 23.0454 11.4035C23.1189 11.3793 23.2027 11.3678 23.2944 11.3678C23.3639 11.3678 23.4329 11.3759 23.4847 11.3868C23.5565 11.4024 23.5845 11.4105 23.6033 11.4162C23.679 11.4393 23.6893 11.4168 23.7041 11.3799L23.8813 10.8874C23.8996 10.8344 23.8545 10.8119 23.8386 10.8056Z" fill="white"/>
<path d="M13.4807 15.88C13.4807 15.9192 13.4528 15.9509 13.4141 15.9509H12.7999C12.7612 15.9509 12.7339 15.9192 12.7339 15.88V10.8725C12.7339 10.8333 12.7612 10.8016 12.7999 10.8016H13.4141C13.4528 10.8016 13.4807 10.8333 13.4807 10.8725V15.88Z" fill="white"/>
</svg>
