<svg width="40" height="40" viewBox="0 0 40 40" fill="none" xmlns="http://www.w3.org/2000/svg">
<path d="M40 20.4448C40 18.8004 39.8639 17.6004 39.5692 16.356H20.4082V23.7781H31.6553C31.4286 25.6226 30.2041 28.4004 27.483 30.2669L27.4448 30.5154L33.5032 35.1149L33.9229 35.156C37.7777 31.667 40 26.5337 40 20.4448Z" fill="#4285F4"/>
<path d="M20.4081 40.0005C25.9182 40.0005 30.544 38.2226 33.9228 35.1561L27.4829 30.267C25.7596 31.4448 23.4466 32.267 20.4081 32.267C15.0113 32.267 10.4308 28.7783 8.79804 23.9561L8.55871 23.976L2.25914 28.7538L2.17676 28.9782C5.53273 35.5115 12.4262 40.0005 20.4081 40.0005Z" fill="#34A853"/>
<path d="M8.7981 23.955C8.36727 22.7106 8.11793 21.3772 8.11793 19.9995C8.11793 18.6216 8.36727 17.2883 8.77543 16.0439L8.76402 15.7789L2.38551 10.9243L2.17682 11.0216C0.79366 13.7327 0 16.7772 0 19.9995C0 23.2217 0.79366 26.266 2.17682 28.9772L8.7981 23.955Z" fill="#FBBC05"/>
<path d="M20.4081 7.73328C24.2402 7.73328 26.8252 9.3555 28.2992 10.7111L34.0588 5.2C30.5215 1.97779 25.9182 0 20.4081 0C12.4262 0 5.53273 4.48885 2.17676 11.0221L8.77537 16.0444C10.4308 11.2222 15.0113 7.73328 20.4081 7.73328Z" fill="#EB4335"/>
</svg>
