<svg width="32" height="31" viewBox="0 0 32 31" fill="none" xmlns="http://www.w3.org/2000/svg">
<path d="M31.0466 16.9409H17.0884L26.3842 26.2368C26.7395 26.5921 27.3242 26.6209 27.6895 26.2768C29.966 24.1321 31.5319 21.2409 31.9913 17.9909C32.0701 17.4344 31.6084 16.9409 31.0466 16.9409ZM30.1154 13.1291C29.6307 6.10207 24.0154 0.486772 16.9884 0.00206603C16.4519 -0.0349928 16.0001 0.41736 16.0001 0.955007V14.1174H29.1631C29.7007 14.1174 30.1525 13.6656 30.1154 13.1291ZM13.1766 16.9409V2.98265C13.1766 2.42089 12.6831 1.95912 12.1272 2.03795C5.11719 3.02854 -0.241048 9.15265 0.00836386 16.4921C0.264834 24.0297 6.75483 30.2109 14.296 30.1162C17.2607 30.0791 20.0001 29.1238 22.2525 27.5262C22.7172 27.1968 22.7478 26.5127 22.3448 26.1097L13.1766 16.9409Z" fill="#19C1CE"/>
</svg>
