<svg width="32" height="24" viewBox="0 0 32 24" fill="none" xmlns="http://www.w3.org/2000/svg">
<path d="M32 21V23C32 23.2652 31.8946 23.5196 31.7071 23.7071C31.5196 23.8946 31.2652 24 31 24H2C1.46957 24 0.960859 23.7893 0.585786 23.4142C0.210714 23.0391 0 22.5304 0 22V1C0 0.734784 0.105357 0.48043 0.292893 0.292893C0.48043 0.105357 0.734784 0 1 0H3C3.26522 0 3.51957 0.105357 3.70711 0.292893C3.89464 0.48043 4 0.734784 4 1V20H31C31.2652 20 31.5196 20.1054 31.7071 20.2929C31.8946 20.4804 32 20.7348 32 21Z" fill="#19C1CE"/>
<path d="M29.9999 3V10.3781C29.9999 11.7144 28.3843 12.3837 27.4374 11.4406L25.4124 9.41562L19.4124 15.4156C19.0374 15.7906 18.5287 16.0013 17.9984 16.0013C17.468 16.0013 16.9594 15.7906 16.5843 15.4156L11.9999 10.8281L9.12119 13.7075C9.02833 13.8004 8.91808 13.8741 8.79674 13.9243C8.6754 13.9746 8.54534 14.0005 8.414 14.0005C8.28266 14.0005 8.15261 13.9746 8.03127 13.9243C7.90993 13.8741 7.79968 13.8004 7.70682 13.7075L6.29307 12.2938C6.20018 12.2009 6.1265 12.0906 6.07623 11.9693C6.02596 11.848 6.00009 11.7179 6.00009 11.5866C6.00009 11.4552 6.02596 11.3252 6.07623 11.2038C6.1265 11.0825 6.20018 10.9722 6.29307 10.8794L10.5862 6.58625C10.9613 6.21127 11.4699 6.00061 12.0003 6.00061C12.5306 6.00061 13.0393 6.21127 13.4143 6.58625L17.9999 11.1719L22.5856 6.58562L20.5624 4.5625C19.6174 3.6175 20.2868 2 21.6249 2H28.9999C29.2652 2 29.5195 2.10536 29.707 2.29289C29.8946 2.48043 29.9999 2.73478 29.9999 3Z" fill="#19C1CE"/>
</svg>
