<?xml version="1.0" encoding="UTF-8" standalone="no"?>
<svg
   xmlns:dc="http://purl.org/dc/elements/1.1/"
   xmlns:cc="http://creativecommons.org/ns#"
   xmlns:rdf="http://www.w3.org/1999/02/22-rdf-syntax-ns#"
   xmlns:svg="http://www.w3.org/2000/svg"
   xmlns="http://www.w3.org/2000/svg"
   xmlns:sodipodi="http://sodipodi.sourceforge.net/DTD/sodipodi-0.dtd"
   xmlns:inkscape="http://www.inkscape.org/namespaces/inkscape"
   width="524"
   height="98"
   viewBox="0 0 524 98"
   version="1.1"
   id="svg30"
   sodipodi:docname="default.svg"
   style="fill:none"
   inkscape:version="0.92.3 (2405546, 2018-03-11)">
  <metadata
     id="metadata36">
    <rdf:RDF>
      <cc:Work
         rdf:about="">
        <dc:format>image/svg+xml</dc:format>
        <dc:type
           rdf:resource="http://purl.org/dc/dcmitype/StillImage" />
        <dc:title></dc:title>
      </cc:Work>
    </rdf:RDF>
  </metadata>
  <defs
     id="defs34" />
  <sodipodi:namedview
     pagecolor="#ffffff"
     bordercolor="#666666"
     borderopacity="1"
     objecttolerance="10"
     gridtolerance="10"
     guidetolerance="10"
     inkscape:pageopacity="0"
     inkscape:pageshadow="2"
     inkscape:window-width="1366"
     inkscape:window-height="705"
     id="namedview32"
     showgrid="false"
     inkscape:pagecheckerboard="true"
     inkscape:zoom="1.0881226"
     inkscape:cx="218.03717"
     inkscape:cy="3.8838123"
     inkscape:window-x="-8"
     inkscape:window-y="-8"
     inkscape:window-maximized="1"
     inkscape:current-layer="svg30" />
  <g
     id="g51"
     transform="translate(1,1)">
    <path
       id="path4"
       d="m 481.438,25.502 h 11.545 l 20.468,33.7195 h 0.749 l -0.749,-5.9764 V 25.502 H 522 V 70.4823 H 510.456 L 489.988,36.7628 h -0.749 l 0.749,5.9764 v 27.7431 h -8.55 z"
       inkscape:connector-curvature="0"
       style="fill:#000000" />
    <path
       id="path6"
       d="m 448.365,24 c 14.477,0 24.899,10.5059 24.899,23.9685 0,13.4627 -10.422,23.9686 -24.899,23.9686 -14.477,0 -24.899,-10.5059 -24.899,-23.9686 C 423.466,34.5059 433.825,24 448.365,24 Z m 0,39.6959 c 9.298,0 15.975,-6.7313 15.975,-15.7274 0,-8.996 -6.677,-15.7273 -15.975,-15.7273 -9.298,0 -15.975,6.7313 -15.975,15.7273 0,8.9961 6.677,15.7274 15.975,15.7274 z"
       inkscape:connector-curvature="0"
       style="fill:#000000" />
    <path
       id="path8"
       d="m 406.68,25.502 h 8.549 v 44.9803 h -8.549 z"
       inkscape:connector-curvature="0"
       style="fill:#000000" />
    <path
       id="path10"
       d="m 360.189,25.502 h 40.562 v 8.2411 h -15.975 v 36.7392 h -8.549 V 33.7431 h -16.038 z"
       inkscape:connector-curvature="0"
       style="fill:#000000" />
    <path
       id="path12"
       d="m 328.551,25.502 h 20.219 l 12.543,44.9803 h -8.55 l -2.995,-10.8834 h -22.34 l -2.996,10.8834 h -8.549 z m 19.033,25.9187 -4.805,-17.6147 h -8.175 l -4.805,17.6147 z"
       inkscape:connector-curvature="0"
       style="fill:#000000" />
    <path
       id="path14"
       d="m 276.57,25.502 h 40.562 v 8.2411 h -15.975 v 36.7392 h -8.55 V 33.7431 H 276.57 Z"
       inkscape:connector-curvature="0"
       style="fill:#000000" />
    <path
       id="path16"
       d="m 243.433,57.0275 c 0.375,1.3211 1.061,2.5793 1.997,3.5859 1.685,1.8243 4.493,3.5229 9.548,3.5229 7.426,0 10.421,-3.0197 10.421,-5.9764 0,-4.7811 -7.238,-5.9135 -14.477,-7.4863 -7.301,-1.5727 -14.478,-4.6553 -14.478,-13.148 0,-7.1088 6.303,-13.5256 18.222,-13.5256 8.362,0 13.167,3.3971 15.913,6.7313 1.622,2.0131 2.745,4.2779 3.432,6.7313 h -8.924 c -0.374,-0.9436 -0.936,-1.9502 -1.872,-2.768 -1.497,-1.4469 -4.118,-2.8309 -8.549,-2.8309 -6.74,0 -9.298,2.2647 -9.298,5.2215 0,3.3971 4.119,4.9698 9.173,5.9764 8.549,1.6986 19.844,3.8375 19.844,14.595 0,7.4862 -6.614,14.2176 -19.345,14.2176 -9.422,0 -14.727,-3.6488 -17.535,-7.4863 -1.622,-2.2018 -2.746,-4.7182 -3.245,-7.4862 h 9.173 z"
       inkscape:connector-curvature="0"
       style="fill:#000000" />
    <path
       id="path18"
       d="M 218.036,47.9685 C 218.036,34.0655 206.866,24 191.39,24 h -19.907 v 48 h 19.907 c 15.413,-0.0629 26.646,-10.1284 26.646,-24.0315 z m -32.387,11.827 v -23.654 h 5.366 c 7.426,0 12.107,4.5295 12.107,11.827 0,7.2976 -4.618,11.827 -12.107,11.827 z"
       inkscape:connector-curvature="0"
       style="fill:#000000" />
    <path
       id="path20"
       d="m 155.82,55.0144 c 1.498,-0.692 2.871,-1.7615 4.119,-3.0826 2.808,-2.8938 4.181,-6.4796 4.181,-10.6946 C 164.12,31.0459 156.195,24 144.9,24 H 119.314 V 72 H 133.48 V 58.1599 h 8.674 L 149.892,72 h 14.29 l -9.236,-16.5452 z m -12.293,-8.367 h -9.985 V 35.7641 h 9.985 c 3.494,0 6.115,2.3276 6.115,5.4102 0,3.1455 -2.621,5.4731 -6.115,5.4731 z"
       inkscape:connector-curvature="0"
       style="fill:#000000" />
    <path
       id="path22"
       d="m 47.707,69.6478 47.7444,17.768 V 71.4846 L 47.707,53.7166 0,71.4846 v 15.9312 z"
       inkscape:connector-curvature="0"
       style="fill:#000000" />
    <path
       id="path24"
       d="M 47.707,69.6479 0,87.4159 17.708,96 47.707,84.8294 77.7434,96 95.4514,87.4159 Z"
       inkscape:connector-curvature="0"
       style="fill:#19c1ce" />
    <path
       id="path26"
       d="M 47.707,26.3523 0,8.58411 V 24.5154 L 47.707,42.2836 95.4514,24.5154 V 8.58411 Z"
       inkscape:connector-curvature="0"
       style="fill:#000000" />
    <path
       id="path28"
       d="M 47.707,26.3523 95.4514,8.58411 77.7434,0 47.707,11.1707 17.708,0 0,8.58411 Z"
       inkscape:connector-curvature="0"
       style="fill:#19c1ce" />
  </g>
</svg>
