<svg width="32" height="29" viewBox="0 0 32 29" fill="none" xmlns="http://www.w3.org/2000/svg">
<path d="M32 13.7204C32 12.4023 31.2806 11.2639 30.2222 10.6458V2.11882C30.2222 1.63075 29.8344 0.333313 28.4444 0.333313C28.0489 0.333313 27.6561 0.466068 27.3344 0.724886L22.6106 4.51957C20.2378 6.42388 17.2589 7.4731 14.2222 7.4731H3.55556C1.59167 7.4731 0 9.07118 0 11.043V16.3978C0 18.3696 1.59167 19.9677 3.55556 19.9677H5.42778C5.35056 20.5523 5.30667 21.1469 5.30667 21.7527C5.30667 23.971 5.82111 26.0672 6.72667 27.9409C7.015 28.5371 7.64444 28.8925 8.30444 28.8925H12.4311C13.8783 28.8925 14.7472 27.228 13.87 26.0722C12.9589 24.8719 12.4172 23.3747 12.4172 21.7527C12.4172 21.133 12.5072 20.5372 12.6622 19.9677H14.2222C17.2589 19.9677 20.2378 21.0169 22.61 22.9212L27.3339 26.7159C27.649 26.9691 28.0404 27.1072 28.4439 27.1075C29.8283 27.1075 30.2217 25.8368 30.2217 25.3226V16.7955C31.2806 16.1769 32 15.0385 32 13.7204ZM26.6667 21.6088L24.8306 20.1339C21.8306 17.7243 18.0622 16.3978 14.2222 16.3978V11.043C18.0622 11.043 21.8306 9.71655 24.8306 7.30687L26.6667 5.83206V21.6088Z" fill="#19C1CE"/>
</svg>
