<svg width="40" height="40" viewBox="0 0 40 40" fill="none" xmlns="http://www.w3.org/2000/svg">
<path fill-rule="evenodd" clip-rule="evenodd" d="M4.73591 7.08162C3.25265 8.81669 2.13562 10.7912 1.31617 12.9526C0.457797 15.1984 0 17.5057 0 19.9681C0 22.7565 0.597425 25.342 1.62518 27.7816C2.64835 30.2052 4.04692 32.2868 5.88727 34.1176C7.67725 35.9006 9.77625 37.3279 12.2026 38.3653C14.6289 39.4186 17.2635 40 19.9989 40C22.78 40 25.3734 39.4437 27.8432 38.3653C30.2054 37.3393 32.3365 35.9348 34.1585 34.1176C35.9622 32.3165 37.3539 30.1915 38.3542 27.7816C39.4049 25.3146 40 22.7565 40 19.9681C40 17.5057 39.5376 15.1984 38.6815 12.9526C37.8438 10.7934 36.7359 8.86001 35.2641 7.08162C33.79 5.342 32.0847 3.90105 30.1528 2.78842C27.1176 1.04423 23.9863 0 20.3582 0C20.182 0 20.0103 0 19.8386 0C16.2564 0 12.9763 1.02143 9.8907 2.78842C7.9382 3.89421 6.21459 5.34884 4.73591 7.08162Z" fill="#241F20"/>
<path fill-rule="evenodd" clip-rule="evenodd" d="M33.362 7.24586C30.8853 4.24768 27.6784 2.31654 23.7231 1.57098C19.8364 0.843671 16.158 1.42735 12.6741 3.30833C10.8842 4.31152 9.37114 5.56095 8.15111 7.03382C6.89674 8.54089 5.93766 10.276 5.31963 12.2208C4.6833 14.2135 4.52078 16.3065 4.73594 18.3471C5.25554 17.0338 6.05211 15.8323 6.99975 14.6832C8.36398 13.0621 10.0578 11.8469 11.9462 10.9554C13.8301 10.1118 15.8993 9.64212 18.0464 9.59424C20.2072 9.59424 22.3085 10.0138 24.2587 10.8596C26.3142 11.6873 28.1042 12.9504 29.6309 14.6376C30.2009 15.2053 30.677 15.8847 31.144 16.5664C31.8261 16.5664 32.5128 16.6143 33.0965 16.7785C34.6278 17.2003 35.8341 17.9777 36.7749 19.1451L36.8206 18.3995C36.9877 16.3567 36.7749 14.4278 36.2072 12.5331C35.6212 10.6476 34.6736 8.86465 33.362 7.24586Z" fill="#FFAA00"/>
<path fill-rule="evenodd" clip-rule="evenodd" d="M4.31016 26.1125C4.56882 27.6857 5.04493 29.1928 5.83692 30.5699C6.57397 31.9333 7.58112 33.1804 8.8332 34.284L9.46725 34.8015C11.6326 36.2767 13.9399 37.33 16.467 37.8498C18.0944 38.1554 19.7379 38.0596 21.315 37.688C22.9906 37.33 24.5723 36.6506 26.0509 35.6451C24.6821 35.3373 23.4621 34.6054 22.5167 33.5065L22.1459 33.0847C20.1591 33.2944 18.1608 33.2306 16.1579 32.8248C13.6172 32.2411 11.422 31.1877 9.37111 29.7286C7.4186 28.2534 5.79343 26.3724 4.56882 24.17L4.25981 23.5361C4.21174 24.3774 4.21174 25.2666 4.31016 26.1125Z" fill="#FFAA00"/>
<path fill-rule="evenodd" clip-rule="evenodd" d="M23.0386 12.9024C21.2006 12.1089 19.1977 11.751 17.1491 11.751C15.1462 11.7989 13.2578 12.2207 11.5182 13.062C9.77623 13.8417 8.2655 14.9931 6.99741 16.4683C6.09784 17.5718 5.36536 18.771 4.89612 20.0342C5.2532 21.6051 5.8346 23.0642 6.6861 24.5394C7.89011 26.5823 9.46722 28.3151 11.4197 29.6762C13.3081 31.0373 15.4735 31.9311 17.7808 32.4464C19.1954 32.7086 20.6787 32.8226 22.1459 32.7542C21.5759 31.8171 21.2006 30.8276 21.038 29.6762C20.8412 28.5111 20.8938 27.3597 21.1021 26.1103C21.3631 24.5873 21.933 23.176 22.7273 21.8627C23.5788 20.5494 24.6844 19.3502 25.9845 18.3926C26.8337 17.7792 27.7287 17.3096 28.6237 16.9334L28.1499 16.3999C26.6712 14.8974 24.9934 13.6798 23.0386 12.9024Z" fill="#ED3921"/>
<path fill-rule="evenodd" clip-rule="evenodd" d="M37.0999 21.8647L36.6306 21.0713C35.9439 23.4379 34.6736 25.5309 33.0484 27.4256C32.673 28.9965 32.0389 30.4078 31.2103 31.7211C30.3611 33.0161 29.2532 34.1835 27.9874 35.173C28.8824 35.2209 29.7774 35.0772 30.6747 34.7512C31.517 34.4434 32.2999 33.9737 33.0964 33.3399C34.1562 32.3526 35.1497 31.1853 35.9943 29.986L36.1385 29.7763C36.5139 28.9965 36.8893 28.2054 37.1457 27.4735C37.4089 26.68 37.5714 25.9026 37.6218 25.1753C37.6698 24.3773 37.6698 23.6955 37.5233 23.0161C37.4112 22.5966 37.2487 22.2227 37.0999 21.8647Z" fill="#FF8800"/>
<path fill-rule="evenodd" clip-rule="evenodd" d="M2.46986 12.6404C1.78774 14.5259 1.41463 16.5163 1.3185 18.6732C1.27043 21.4411 1.78774 24.1178 2.84983 26.6326C3.36714 27.8296 4.00576 28.9969 4.78173 30.1005C5.53481 31.1378 6.36342 32.1433 7.30419 33.0165C5.25784 30.7639 4.04697 28.1533 3.68073 25.2213C3.58001 24.2181 3.58001 23.2765 3.63037 22.287C2.94825 20.3877 2.57286 18.509 2.57286 16.5642C2.57286 14.7334 2.89561 12.9504 3.46785 11.115C3.95541 9.85421 4.57343 8.65266 5.25784 7.55371C4.04697 9.1269 3.15884 10.8118 2.46986 12.6404Z" fill="#F66418"/>
<path fill-rule="evenodd" clip-rule="evenodd" d="M38.4046 13.7458C37.9308 12.2227 37.3127 10.7453 36.5162 9.38415C35.7356 8.07088 34.772 6.86933 33.6229 5.77266C32.5791 4.66687 31.3591 3.72752 29.9926 2.93408C31.1439 3.72524 32.2014 4.66687 33.1491 5.7225C34.63 7.39145 35.7379 9.17439 36.42 11.1694C37.1021 13.21 37.4134 15.3189 37.2509 17.5077C37.2029 18.1894 37.1021 18.8187 36.9923 19.5004C37.2509 19.9199 37.5279 20.4398 37.7408 20.9733C38.2581 22.4986 38.3565 24.1174 38.0956 25.7407C38.8921 23.4904 39.2973 21.1192 39.2492 18.6728C39.1508 16.9879 38.8921 15.3189 38.4046 13.7458Z" fill="#F66418"/>
<path fill-rule="evenodd" clip-rule="evenodd" d="M32.2014 18.7212C32.7233 19.8224 33.0506 21.024 33.1948 22.2232C33.3619 23.4385 33.4077 24.5899 33.3093 25.7413L33.0964 26.8926C34.6735 25.0618 35.7333 23.019 36.3536 20.6501C35.9943 20.2944 35.6189 19.9227 35.1931 19.6149C34.3508 19.029 33.3619 18.7212 32.2014 18.7212Z" fill="#F66418"/>
<path fill-rule="evenodd" clip-rule="evenodd" d="M29.0472 32.5489C29.6812 31.6552 30.2008 30.6704 30.5762 29.6787C28.4589 31.1879 26.1516 32.2411 23.6292 32.7563C23.9862 33.3399 24.4715 33.8118 24.9934 34.1834C25.5176 34.5391 26.1013 34.799 26.7834 35.011C27.6303 34.2815 28.4108 33.438 29.0472 32.5489Z" fill="#ED3921"/>
<path fill-rule="evenodd" clip-rule="evenodd" d="M18.4652 38.1548L20.7313 38.2666C22.6838 38.221 24.5173 37.8471 26.3118 37.2635C27.9874 36.6958 29.6286 35.9025 31.0478 34.9131C30.1505 35.3348 29.2051 35.6426 28.2003 35.6905C27.889 35.7543 27.5136 35.7543 27.1565 35.7543C24.5745 37.4276 21.6721 38.221 18.4652 38.1548Z" fill="#ED3921"/>
<path fill-rule="evenodd" clip-rule="evenodd" d="M30.9975 22.9685C30.6747 21.6074 30.2009 20.3466 29.5188 19.145C28.3125 19.503 27.255 20.1345 26.2616 20.9758C25.2041 21.8673 24.3091 22.9708 23.627 24.2203C23.0387 25.4811 22.6839 26.6826 22.5694 27.9435C22.4229 29.1427 22.5694 30.2485 22.8945 31.2996C23.0387 31.6553 23.1554 31.979 23.3683 32.2891C24.6868 32.1455 25.8885 31.7693 27.0948 31.2517C28.3606 30.7661 29.5211 30.1026 30.6244 29.259L30.7228 29.1906C30.9357 28.4109 31.0982 27.6197 31.2126 26.8377C31.3065 25.5312 31.2584 24.2795 30.9975 22.9685Z" fill="#FFEC00"/>
</svg>
