<svg width="16" height="16" viewBox="0 0 16 16" fill="none" xmlns="http://www.w3.org/2000/svg">
<path d="M8 0.5C3.85685 0.5 0.5 3.85685 0.5 8C0.5 12.1431 3.85685 15.5 8 15.5C12.1431 15.5 15.5 12.1431 15.5 8C15.5 3.85685 12.1431 0.5 8 0.5ZM11.9022 8.72581L6.57964 11.7802C6.10181 12.0464 5.5 11.7046 5.5 11.1452C5.5 8.68864 5.5 7.31136 5.5 4.85484C5.5 4.29839 6.09879 3.95363 6.57964 4.21976C8.65823 5.48345 9.82362 6.19195 11.9022 7.45565C12.3982 7.73387 12.3982 8.4506 11.9022 8.72581Z" fill="#212429"/>
</svg>
