<svg width="36" height="40" viewBox="0 0 36 40" fill="none" xmlns="http://www.w3.org/2000/svg">
<path d="M31.155 7.78811C31.1275 7.58696 30.9523 7.47578 30.8075 7.46357C30.6629 7.45136 27.6036 7.22353 27.6036 7.22353C27.6036 7.22353 25.4789 5.10371 25.2459 4.86914C25.0124 4.63457 24.5568 4.7059 24.38 4.75828C24.3538 4.76599 23.9157 4.90191 23.1909 5.12717C22.481 3.07482 21.2286 1.18861 19.0249 1.18861C18.9642 1.18861 18.9015 1.19118 18.8388 1.19471C18.2122 0.361819 17.4358 0 16.7653 0C11.6322 0 9.17974 6.4488 8.41076 9.72606C6.4162 10.3472 4.9991 10.7887 4.81813 10.8459C3.70478 11.1968 3.66961 11.2321 3.52349 12.2864C3.41318 13.0846 0.5 35.7256 0.5 35.7256L23.2001 40L35.5 37.3259C35.5 37.3259 31.1822 7.98927 31.155 7.78811ZM21.9362 5.51726C21.3661 5.69464 20.718 5.89611 20.0155 6.11462C20.0161 5.9787 20.0168 5.8447 20.0168 5.69849C20.0168 4.42281 19.8406 3.39583 19.5579 2.58158C20.6934 2.72489 21.4495 4.02307 21.9362 5.51726ZM18.1495 2.83447C18.4651 3.62944 18.6703 4.77017 18.6703 6.30967C18.6703 6.38839 18.6697 6.46037 18.6691 6.53331C17.4198 6.92213 16.0625 7.34435 14.702 7.76787C15.4659 4.80519 16.8977 3.3743 18.1495 2.83447ZM16.6243 1.38365C16.8459 1.38365 17.0691 1.45917 17.2827 1.60698C15.6376 2.38492 13.8742 4.3444 13.1295 8.25726C12.0411 8.59594 10.9773 8.92691 9.9938 9.23314C10.8661 6.24861 12.9374 1.38365 16.6243 1.38365Z" fill="#95BF46"/>
<path d="M30.8075 7.46355C30.6629 7.45134 27.6036 7.22352 27.6036 7.22352C27.6036 7.22352 25.4789 5.10369 25.2459 4.86912C25.1586 4.78172 25.0409 4.73705 24.9178 4.71777L23.2014 39.9997L35.5 37.3259C35.5 37.3259 31.1822 7.98925 31.155 7.7881C31.1275 7.58694 30.9523 7.47576 30.8075 7.46355Z" fill="#5E8E3E"/>
<path d="M19.0249 14.2936L17.5084 18.8273C17.5084 18.8273 16.1795 18.1146 14.5507 18.1146C12.1629 18.1146 12.0427 19.6207 12.0427 20.0002C12.0427 22.0708 17.4137 22.8642 17.4137 27.7144C17.4137 31.5302 15.0054 33.9874 11.7581 33.9874C7.86141 33.9874 5.86877 31.5501 5.86877 31.5501L6.91209 28.0858C6.91209 28.0858 8.96037 29.8532 10.6889 29.8532C11.8182 29.8532 12.2777 28.9595 12.2777 28.3066C12.2777 25.6055 7.87132 25.485 7.87132 21.0468C7.87132 17.3113 10.5393 13.6963 15.9247 13.6963C17.9998 13.6963 19.0249 14.2936 19.0249 14.2936Z" fill="white"/>
</svg>
