<svg width="24" height="21" viewBox="0 0 24 21" fill="none" xmlns="http://www.w3.org/2000/svg">
<path d="M21.5331 5.52449C21.5483 5.73768 21.5483 5.95091 21.5483 6.1641C21.5483 12.6666 16.5991 20.1591 7.55333 20.1591C4.7665 20.1591 2.17768 19.3519 0 17.951C0.395955 17.9966 0.776628 18.0119 1.18782 18.0119C3.48728 18.0119 5.60407 17.2352 7.29444 15.9103C5.13199 15.8646 3.31979 14.4484 2.69542 12.4991C3.00001 12.5448 3.30456 12.5753 3.62439 12.5753C4.066 12.5753 4.50766 12.5143 4.9188 12.4078C2.66499 11.9509 0.974582 9.97121 0.974582 7.58034V7.51945C1.62938 7.88494 2.39087 8.11336 3.19792 8.14378C1.87304 7.26051 1.00505 5.75291 1.00505 4.04731C1.00505 3.13362 1.24866 2.29605 1.67508 1.56508C4.09642 4.54986 7.73605 6.49907 11.8172 6.71231C11.7411 6.34682 11.6954 5.96615 11.6954 5.58543C11.6954 2.87473 13.8883 0.666626 16.6142 0.666626C18.0304 0.666626 19.3096 1.26053 20.2081 2.21993C21.3198 2.00674 22.3858 1.59555 23.33 1.03211C22.9644 2.17427 22.1878 3.13367 21.1675 3.74276C22.1574 3.63622 23.1168 3.36204 24 2.98137C23.3301 3.95595 22.4924 4.82394 21.5331 5.52449Z" fill="#212429"/>
</svg>
