<svg width="28" height="20" viewBox="0 0 28 20" fill="none" xmlns="http://www.w3.org/2000/svg">
<path d="M26.7759 3.60036C26.4693 2.44558 25.5656 1.53611 24.4183 1.22747C22.3387 0.666626 13.9998 0.666626 13.9998 0.666626C13.9998 0.666626 5.66098 0.666626 3.58134 1.22747C2.43403 1.53616 1.53042 2.44558 1.22373 3.60036C0.666504 5.69347 0.666504 10.0606 0.666504 10.0606C0.666504 10.0606 0.666504 14.4276 1.22373 16.5208C1.53042 17.6755 2.43403 18.5471 3.58134 18.8558C5.66098 19.4166 13.9998 19.4166 13.9998 19.4166C13.9998 19.4166 22.3387 19.4166 24.4183 18.8558C25.5656 18.5471 26.4693 17.6755 26.7759 16.5208C27.3332 14.4276 27.3332 10.0606 27.3332 10.0606C27.3332 10.0606 27.3332 5.69347 26.7759 3.60036ZM11.2725 14.0255V6.09557L18.2422 10.0607L11.2725 14.0255Z" fill="#212429"/>
</svg>
